<?xml version="1.0" encoding="utf-8"?>
<!-- Svg Vector Icons : http://www.onlinewebfonts.com/icon -->
<!DOCTYPE svg PUBLIC "-//W3C//DTD SVG 1.1//EN" "http://www.w3.org/Graphics/SVG/1.1/DTD/svg11.dtd">
<svg version="1.1" xmlns="http://www.w3.org/2000/svg" xmlns:xlink="http://www.w3.org/1999/xlink" x="0px" y="0px" viewBox="0 0 1000 1000" enable-background="new 0 0 1000 1000" xml:space="preserve">
<metadata> Svg Vector Icons : http://www.onlinewebfonts.com/icon </metadata>
<g><g transform="translate(0.000000,511.000000) scale(0.100000,-0.100000)"><path d="M5059.8,4997.2c-614.3-78-1158.6-300.2-1630.9-670.4c-88-70-192.1-158.1-228.1-198.1l-70-72h-868.5h-870.5l12-214.1c30-552.3,284.2-1028.5,716.4-1348.7l138.1-102.1l-88-60c-48-32-112.1-88-142.1-126.1c-52-70-54-70-204.1-70c-218.1,0-296.2-30-426.2-160.1c-124.1-122.1-160.1-210.1-160.1-384.2v-110l-84-24c-340.2-100-632.3-420.2-696.4-760.4c-12-60-20-420.2-20-820.4c0-772.4,8-840.4,112.1-1046.5c64-126.1,246.1-322.2,364.2-390.2c176.1-104.1,280.2-130.1,566.3-144.1c224.1-12,286.2-22,368.2-62c124.1-60,230.1-166.1,292.2-292.2c48-96,48-108,54-718.4l6-622.3l-70-24c-126.1-46-360.2-216.1-492.3-356.2c-224.1-242.1-358.2-526.3-390.2-832.5l-14-136.1h162.1h162.1v76c2,326.2,246.1,732.4,536.3,890.5l104.1,56v-510.3V-4748h160.1h160.1v560.3v560.3h696.4h694.4l746.4-582.3l744.4-580.3l746.4,580.3l744.4,582.3h690.4c776.4,0,848.5-10,1084.6-134.1c324.2-170.1,574.3-566.3,576.3-910.5v-76h160.1c186.1,0,180.1-10,132.1,244.1c-60,308.1-204.1,568.3-440.2,790.4c-176.1,166.1-316.2,250.1-546.3,334.2l-176.1,62l-684.4,6l-686.4,8v542.3l2,544.3l114.1,68C7829.2-1720.4,8377.5-936,8537.6-111.5c32,158.1,54,218.1,114.1,306.2c92,134.1,174.1,310.2,220.1,470.3c52,178.1,68,1072.6,22,1248.7c-48,192.1-170.1,366.2-316.2,454.2c-16,10-52,112.1-82,224.1C8183.4,3798.6,7202.9,4723,5986.2,4957.2C5736.1,5005.2,5283.9,5025.2,5059.8,4997.2z M6010.3,4637c874.5-188.1,1588.8-750.4,1981-1562.8c104.1-218.1,228.1-586.3,204.1-610.3c-24-26-244.1,32-384.2,100C7523.1,2702,7421,2838,7178.9,3404.3c-92.1,216.1-172.1,392.2-178.1,392.2c-6,0-86.1-176.1-178.1-392.2c-180.1-420.2-276.2-584.3-408.2-700.4c-104.1-90-326.2-200.1-464.3-228.1c-70-14-582.3-20-1592.8-16l-1488.8,6l-140.1,48c-254.1,84.1-408.2,178.1-590.3,362.2c-226.1,224.1-354.2,474.3-408.2,796.4l-12,64h764.4h762.4l156.1,150.1c458.2,436.2,1006.5,704.4,1620.8,790.4C5239.9,4707,5784.2,4685,6010.3,4637z M7038.8,2936.1c32-94.1,152.1-264.1,266.1-378.2l102.1-102.1h-406.2h-404.2l138.1,148.1c80.1,86.1,164.1,202.1,198.1,270.1c32,66,64,122.1,72.1,122.1C7010.8,2996.1,7026.8,2968.1,7038.8,2936.1z M8491.6,2051.6c36-40,76-106,88-150.1c12-44,22-276.1,22-548.3c0-404.2-6-494.3-40-626.3c-54-210.1-124.1-332.2-290.2-500.3c-402.2-406.2-1030.5-444.2-1478.8-90l-98,78H5395.9H4095.2l-78-68C3835.1-7.5,3571-105.5,3326.8-105.5c-158.1,0-400.2,62-550.3,142.1c-156.1,84.1-382.2,322.2-460.2,484.3c-106,224.1-120.1,348.2-114.1,918.5c6,482.2,8,516.3,48,570.3c22,30,72,72,110.1,92c64,32,242.1,34,3065.6,30l2999.6-6L8491.6,2051.6z M1878.1,1335.2V855H1758c-200.1,0-200.1,2-200.1,480.3s0,480.3,200.1,480.3h120.1V1335.2z M1237.7,1059.1c0-140.1,52-270.1,144.1-364.2c118.1-124.1,212.1-160.1,420.2-160.1h174.1l48-104.1c26-58,82-154.1,122.1-214.1c60-88,82-148.1,114.1-316.2c112.1-578.3,422.2-1164.6,840.4-1584.8c180.1-184.1,430.2-382.2,596.3-476.3l102.1-56v-544.3v-544.3l-640.3-6l-640.3-6v530.3c0,576.3-12,666.3-112.1,864.5c-64,126.1-246.1,322.2-364.2,390.2c-176.1,104-280.2,130.1-566.3,144.1c-224.1,12-286.1,22-368.2,62c-124.1,60-230.1,166.1-292.2,292.1l-48,98.1v830.4v830.4l48,98c60,122.1,166.1,230.1,282.2,288.2C1225.7,1175.2,1237.7,1171.2,1237.7,1059.1z M6676.6-179.6c404.2-268.2,966.5-320.2,1378.7-128.1c68,34,126.1,54,126.1,46c0-50-120.1-354.2-200.1-516.3c-190.1-372.2-502.2-738.4-832.4-970.5c-272.2-194.1-1036.6-612.3-1248.7-682.4c-178.1-60-208.1-64-490.2-64c-320.2,0-444.2,22-660.4,118.1c-180.1,78-930.5,508.3-1098.6,628.3c-334.2,236.1-664.4,626.3-844.5,992.5c-76,158.1-188.1,450.2-188.1,492.2c0,8,56-10,126.1-42c424.2-192.1,968.5-144.1,1366.7,120.1l118.1,78l1168.6,2h1168.6L6676.6-179.6z M4359.4-2530.8c396.2-214.1,654.3-286.1,1040.5-286.1c386.2,0,644.4,72,1040.5,286.1c116.1,62,216.1,118.1,226.1,120.1c8,4,14-216.1,12-490.3v-496.3l-640.3-494.3l-638.4-496.3l-638.3,496.3l-640.3,494.3v496.3c-2,274.2,4,494.3,14,490.3C4143.3-2412.7,4243.3-2468.8,4359.4-2530.8z"/><path d="M2838.6,855V694.9h2161.1h2161.1V855v160.1H4999.7H2838.6V855z"/><path d="M7481.1,855V694.9h240.1h240.1V855v160.1h-240.1h-240.1V855z"/></g></g>
</svg>